<?xml version="1.0" encoding="UTF-8" standalone="no"?>
<!DOCTYPE svg PUBLIC "-//W3C//DTD SVG 20010904//EN"
              "http://www.w3.org/TR/2001/REC-SVG-20010904/DTD/svg10.dtd">

<svg xmlns="http://www.w3.org/2000/svg"
     width="1.66667in" height="1.66667in"
     viewBox="0 0 500 500" id = "airplane">
  <path id="img"
         stroke="black" stroke-width="1"
        d="M 225.00,442.00
           C 225.00,442.00 213.00,443.87 213.00,443.87
             213.00,443.87 194.00,445.83 194.00,445.83
             194.00,445.83 162.00,448.17 162.00,448.17
             162.00,448.17 81.00,455.09 81.00,455.09
             81.00,455.09 65.00,456.83 65.00,456.83
             65.00,456.83 35.00,459.09 35.00,459.09
             35.00,459.09 26.00,459.99 26.00,459.99
             21.45,460.09 14.99,459.64 11.51,456.30
             6.86,451.84 8.76,442.27 10.83,437.00
             10.83,437.00 19.74,420.00 19.74,420.00
             19.74,420.00 43.42,377.00 43.42,377.00
             43.42,377.00 70.86,327.00 70.86,327.00
             70.86,327.00 158.72,168.00 158.72,168.00
             158.72,168.00 187.85,115.00 187.85,115.00
             187.85,115.00 200.86,91.00 200.86,91.00
             200.86,91.00 225.76,46.00 225.76,46.00
             230.91,35.93 238.05,23.48 251.00,24.05
             261.15,24.49 268.24,34.91 272.69,43.00
             272.69,43.00 307.75,107.00 307.75,107.00
             307.75,107.00 348.69,181.00 348.69,181.00
             348.69,181.00 417.86,307.00 417.86,307.00
             417.86,307.00 451.75,368.00 451.75,368.00
             451.75,368.00 479.25,418.00 479.25,418.00
             479.25,418.00 489.29,437.00 489.29,437.00
             494.10,450.01 491.46,462.59 475.00,461.96
             475.00,461.96 457.00,460.17 457.00,460.17
             457.00,460.17 410.00,456.17 410.00,456.17
             410.00,456.17 351.00,451.17 351.00,451.17
             351.00,451.17 328.00,449.28 328.00,449.28
             328.00,449.28 292.00,446.17 292.00,446.17
             286.03,445.59 280.47,445.67 275.30,441.79
             271.93,439.26 272.23,434.78 271.72,431.00
             271.72,431.00 267.87,405.00 267.87,405.00
             267.87,405.00 255.28,320.00 255.28,320.00
             255.28,320.00 253.28,298.00 253.28,298.00
             252.80,294.07 253.10,290.50 250.35,287.23
             245.75,281.75 240.11,284.90 237.01,290.00
             233.71,295.42 233.84,311.90 233.17,319.00
             233.17,319.00 231.91,344.00 231.91,344.00
             231.91,344.00 230.09,365.00 230.09,365.00
             230.09,365.00 225.00,442.00 225.00,442.00 Z" />
</svg>
