<?xml version="1.0" encoding="UTF-8" standalone="no"?>
<!DOCTYPE svg PUBLIC "-//W3C//DTD SVG 20010904//EN"
              "http://www.w3.org/TR/2001/REC-SVG-20010904/DTD/svg10.dtd">

<svg xmlns="http://www.w3.org/2000/svg"
     width="1.62667in" height="1.70333in"
     viewBox="0 0 488 511">
  <path id="death"
        fill="white" stroke="black" stroke-width="1"
        d="M 145.00,303.00
           C 144.39,299.63 143.96,292.83 141.49,290.60
             139.08,288.42 134.21,289.18 131.00,288.70
             126.41,288.02 121.74,285.95 118.01,283.21
             107.02,275.15 97.64,253.57 98.02,240.00
             98.17,234.58 99.51,231.13 104.04,227.85
             106.45,226.11 109.43,225.25 111.26,222.78
             112.90,220.57 113.82,210.05 113.82,207.00
             113.82,188.94 106.24,172.32 102.42,155.00
             98.53,137.33 98.97,125.67 99.00,108.00
             99.08,57.25 147.15,20.62 192.00,7.86
             203.89,4.48 218.65,1.02 231.00,1.00
             231.00,1.00 271.00,2.29 271.00,2.29
             293.31,5.07 321.35,15.90 340.00,28.33
             346.04,32.36 355.96,39.95 360.91,45.04
             376.64,61.19 388.96,87.25 389.00,110.00
             389.00,110.00 389.00,125.00 389.00,125.00
             388.85,137.32 385.27,155.08 381.86,167.00
             378.72,177.97 375.06,185.09 375.00,197.00
             375.00,197.00 375.00,202.00 375.00,202.00
             374.93,208.09 372.91,216.20 376.17,221.89
             378.31,225.63 381.85,225.77 384.79,228.41
             388.53,231.78 390.17,238.10 389.82,243.00
             388.83,256.64 378.30,279.11 366.00,285.56
             360.54,288.42 351.14,289.00 345.00,289.00
             345.00,289.00 343.00,303.00 343.00,303.00
             343.00,303.00 357.00,297.95 357.00,297.95
             357.00,297.95 392.00,284.80 392.00,284.80
             395.84,283.29 409.23,278.48 411.57,276.30
             414.89,273.22 413.78,267.28 414.28,263.00
             415.75,250.62 416.77,238.42 430.00,232.53
             446.03,225.39 471.93,234.27 474.79,253.00
             476.80,266.17 471.49,271.63 465.00,282.00
             479.30,282.71 490.37,299.15 486.36,313.00
             484.21,320.45 476.12,327.66 469.00,330.29
             458.29,334.25 449.96,330.39 442.01,322.91
             438.45,319.55 434.16,312.77 429.00,312.60
             424.72,312.46 411.37,319.57 407.00,321.75
             407.00,321.75 359.00,346.24 359.00,346.24
             354.88,348.27 338.79,355.01 336.64,357.63
             334.63,360.08 336.10,362.40 335.90,367.00
             335.71,371.22 334.19,377.88 333.00,382.00
             333.00,382.00 357.00,393.75 357.00,393.75
             357.00,393.75 400.00,415.25 400.00,415.25
             405.15,417.82 423.63,427.79 428.00,428.11
             434.60,428.59 438.81,420.20 443.09,416.18
             450.52,409.20 460.46,407.18 470.00,410.71
             476.82,413.23 483.35,419.01 485.75,426.00
             490.54,439.91 480.99,457.41 466.00,459.00
             470.39,467.54 474.73,470.27 474.99,481.00
             475.06,483.93 475.05,487.18 474.20,490.00
             470.57,502.04 457.01,509.86 445.00,510.00
             441.85,510.03 436.96,510.16 434.00,509.47
             423.45,507.04 416.45,497.46 415.18,487.00
             414.45,480.99 415.42,467.49 410.85,463.64
             406.84,460.25 385.39,453.24 379.00,450.81
             379.00,450.81 326.00,431.31 326.00,431.31
             326.00,431.31 305.17,423.55 305.17,423.55
             301.02,422.56 297.11,426.83 294.00,429.12
             288.48,433.18 277.06,440.65 271.00,443.47
             263.68,446.88 252.91,441.78 245.00,441.18
             236.10,440.51 226.47,446.87 218.00,443.73
             212.42,441.66 200.98,434.47 196.00,430.85
             193.04,428.70 187.57,423.77 184.00,423.68
             181.82,423.62 175.35,426.30 173.00,427.19
             173.00,427.19 152.00,434.81 152.00,434.81
             152.00,434.81 103.00,452.95 103.00,452.95
             98.02,454.77 80.64,460.97 77.14,463.36
             71.85,466.98 73.21,475.41 72.96,481.00
             72.54,490.56 69.38,500.61 61.00,506.03
             41.81,518.45 10.42,504.31 12.18,481.00
             12.98,470.52 17.64,467.27 22.00,459.00
             6.54,457.56 -2.86,440.28 2.11,426.00
             4.46,419.22 10.63,413.78 17.00,410.80
             20.41,409.20 24.19,407.95 28.00,408.34
             36.78,409.24 42.58,415.77 48.72,421.34
             51.24,423.62 55.53,428.20 59.00,428.30
             61.24,428.36 64.96,426.27 67.00,425.25
             67.00,425.25 83.00,417.25 83.00,417.25
             83.00,417.25 127.00,395.25 127.00,395.25
             131.79,392.85 147.54,384.86 150.78,381.84
             151.87,380.82 152.46,380.17 152.85,378.70
             152.85,378.70 151.40,360.04 151.40,360.04
             150.81,358.53 150.08,357.67 148.85,356.63
             148.85,356.63 128.00,345.75 128.00,345.75
             128.00,345.75 83.00,323.25 83.00,323.25
             83.00,323.25 67.00,315.70 67.00,315.70
             64.63,314.63 60.57,312.45 58.00,312.64
             53.34,312.99 48.40,320.42 44.91,323.56
             34.61,332.84 23.88,334.80 12.00,326.90
             -7.93,313.64 0.89,283.18 22.00,282.00
             17.74,273.72 11.32,267.42 12.19,257.00
             13.48,241.35 27.88,230.36 43.00,230.01
             64.96,229.51 72.91,244.18 73.00,264.00
             73.02,267.36 73.00,271.90 74.93,274.79
             77.49,278.60 87.54,281.82 92.00,283.60
             92.00,283.60 145.00,303.00 145.00,303.00 Z
           M 172.00,174.29
           C 160.62,176.02 146.85,179.51 139.39,189.00
             132.80,197.40 132.88,208.91 133.00,219.00
             133.08,225.32 134.58,232.18 140.09,236.03
             147.88,241.47 160.15,239.82 169.00,238.72
             181.72,237.13 198.08,233.44 206.48,222.99
             218.54,207.98 215.47,186.58 198.00,177.33
             190.34,173.27 180.46,173.49 172.00,174.29 Z
           M 298.00,174.32
           C 274.91,179.51 265.54,206.81 282.09,223.96
             294.90,237.24 323.36,241.51 341.00,238.79
             357.92,236.18 355.83,212.21 352.87,200.00
             352.00,196.43 351.06,193.13 349.03,190.00
             340.12,176.25 313.11,172.67 298.00,174.32 Z
           M 244.00,284.00
           C 246.09,288.84 249.10,295.33 254.01,297.82
             263.52,302.65 269.30,291.39 268.96,283.00
             268.69,276.22 264.86,266.47 262.42,260.00
             262.42,260.00 256.03,244.00 256.03,244.00
             252.08,236.09 245.29,226.55 236.68,236.19
             235.12,237.93 233.91,239.96 232.79,242.00
             226.42,253.68 218.28,273.68 219.04,287.00
             219.51,295.18 225.92,301.83 234.00,296.99
             239.14,293.92 241.18,288.95 244.00,284.00 Z
           M 163.00,290.00
           C 162.92,293.02 165.17,295.06 166.06,298.01
             167.14,301.60 166.99,305.30 167.00,309.00
             167.00,309.00 167.83,320.00 167.83,320.00
             169.12,333.47 168.39,336.16 175.31,349.00
             177.84,353.69 180.23,358.37 185.00,361.00
             186.14,356.62 186.50,355.91 190.00,353.00
             190.74,355.27 191.59,357.61 191.78,360.00
             192.32,366.94 188.82,368.18 196.21,374.00
             197.22,368.88 195.93,368.61 196.21,365.00
             197.12,360.04 201.16,357.26 203.26,362.08
             204.74,365.47 203.43,372.62 203.85,374.94
             204.15,376.54 205.44,379.08 207.46,377.83
             210.63,375.86 206.68,364.45 214.04,362.74
             215.43,362.42 216.64,362.80 217.77,363.62
             223.87,368.01 218.69,377.02 221.04,380.68
             222.41,382.83 227.54,384.50 226.37,376.00
             226.35,374.01 225.89,372.02 226.37,370.00
             227.02,363.47 234.57,361.17 238.57,365.31
             243.79,370.72 236.25,380.65 243.15,382.84
             244.31,383.03 246.73,382.98 248.00,382.84
             247.81,378.80 245.68,371.25 247.21,368.02
             249.54,363.13 256.82,361.06 259.98,366.23
             263.21,371.51 257.22,381.75 263.04,382.55
             265.40,382.88 266.42,380.94 266.76,378.95
             267.56,374.25 264.45,369.62 267.74,365.15
             271.86,359.53 278.70,363.60 278.73,371.00
             278.73,371.00 278.00,379.00 278.00,379.00
             288.62,378.15 281.03,369.65 283.74,363.04
             286.87,355.39 290.28,363.14 290.84,367.00
             291.22,369.58 291.26,370.41 292.00,373.00
             292.00,373.00 294.00,373.00 294.00,373.00
             294.00,373.00 298.00,352.00 298.00,352.00
             298.00,352.00 300.00,352.00 300.00,352.00
             300.00,352.00 303.00,363.00 303.00,363.00
             310.92,351.81 317.10,341.78 319.54,328.00
             321.04,319.54 320.85,310.57 321.00,302.00
             321.14,294.88 323.01,295.50 326.00,290.00
             320.65,291.42 315.43,292.03 311.39,296.33
             307.73,300.23 307.04,307.80 306.27,313.00
             306.27,313.00 303.17,330.00 303.17,330.00
             302.23,338.85 304.27,338.91 301.00,349.00
             295.00,341.03 298.08,339.87 296.69,335.15
             296.28,333.77 295.17,332.14 293.54,333.17
             292.01,334.14 291.95,337.37 291.72,339.00
             291.72,339.00 290.00,354.00 290.00,354.00
             282.51,351.61 284.51,345.26 283.94,339.02
             283.77,337.11 283.01,333.73 280.26,335.17
             278.51,336.08 278.18,338.25 278.15,340.00
             278.06,344.44 279.94,347.62 277.35,352.97
             274.59,358.66 270.10,356.63 268.84,350.00
             268.51,348.13 268.55,346.87 268.84,345.00
             268.84,345.00 268.84,337.00 268.84,337.00
             268.84,337.00 262.00,337.00 262.00,337.00
             262.00,340.85 262.62,353.08 260.98,355.85
             258.55,359.96 251.88,359.99 249.16,354.94
             248.02,352.35 249.00,341.75 249.16,338.00
             249.16,338.00 238.00,338.00 238.00,338.00
             239.09,342.47 238.79,342.73 239.16,347.00
             239.44,350.20 240.14,352.97 238.14,355.85
             235.41,359.82 228.52,360.08 225.83,355.85
             223.57,351.71 226.33,342.94 225.83,340.15
             225.15,338.10 223.38,336.83 221.30,337.66
             217.30,339.25 220.24,347.15 217.97,352.98
             217.17,355.03 215.67,357.29 213.11,356.51
             205.84,354.31 211.38,339.25 208.16,335.74
             206.97,334.44 205.57,334.36 204.00,334.00
             203.25,337.81 205.02,351.38 199.92,352.38
             198.01,352.75 197.26,350.35 196.86,348.98
             195.55,344.44 196.47,338.59 194.97,335.15
             193.51,331.81 190.55,331.79 189.98,337.02
             189.98,337.02 189.98,341.00 189.98,341.00
             189.98,341.00 189.00,348.00 189.00,348.00
             187.69,347.21 187.10,347.18 186.17,345.71
             184.92,343.71 184.20,331.19 183.91,328.00
             183.91,328.00 181.42,315.00 181.42,315.00
             180.55,309.40 180.27,301.53 176.58,297.10
             173.04,292.85 168.05,291.51 163.00,290.00 Z" />
</svg>
