<?xml version="1.0" encoding="UTF-8" standalone="no"?>
<!DOCTYPE svg PUBLIC "-//W3C//DTD SVG 20010904//EN"
              "http://www.w3.org/TR/2001/REC-SVG-20010904/DTD/svg10.dtd">

<svg xmlns="http://www.w3.org/2000/svg"
     width="1.62667in" height="1.70333in"
     viewBox="0 0 488 511">
  <path id="scan"
        fill="none" stroke="black" stroke-width="1"
        d="M 34.00,52.00
           C 34.00,52.00 34.00,107.00 34.00,107.00
             34.00,107.00 34.00,168.00 34.00,168.00
             33.98,172.83 33.87,176.96 30.58,180.90
             23.98,188.81 12.05,187.07 7.45,178.00
             5.81,174.76 6.01,171.51 6.00,168.00
             6.00,168.00 6.00,45.00 6.00,45.00
             6.17,30.86 14.29,24.02 28.00,24.00
             28.00,24.00 135.00,24.00 135.00,24.00
             146.07,24.00 166.54,20.23 167.89,36.00
             168.91,47.80 160.22,51.95 150.00,52.00
             150.00,52.00 34.00,52.00 34.00,52.00 Z
           M 454.00,52.00
           C 454.00,52.00 399.00,52.00 399.00,52.00
             399.00,52.00 337.00,52.00 337.00,52.00
             332.16,51.94 326.99,51.21 323.39,47.61
             317.09,41.30 318.50,30.62 326.02,26.01
             329.63,23.79 332.96,24.01 337.00,24.00
             337.00,24.00 459.00,24.00 459.00,24.00
             476.92,24.03 481.97,33.38 482.00,50.00
             482.00,50.00 482.00,165.00 482.00,165.00
             481.99,170.68 481.80,177.28 477.61,181.66
             471.65,187.89 460.95,187.13 456.15,179.91
             453.75,176.31 454.01,173.09 454.00,169.00
             454.00,169.00 454.00,52.00 454.00,52.00 Z
           M 19.00,247.09
           C 19.00,247.09 60.00,247.09 60.00,247.09
             60.00,247.09 137.00,247.09 137.00,247.09
             137.00,247.09 375.00,247.09 375.00,247.09
             375.00,247.09 462.00,247.09 462.00,247.09
             471.75,247.12 482.90,250.90 481.44,263.00
             480.22,273.21 472.58,274.99 464.00,275.00
             464.00,275.00 112.00,275.00 112.00,275.00
             112.00,275.00 21.00,275.00 21.00,275.00
             11.90,274.88 5.22,269.79 6.20,260.00
             6.99,252.04 11.89,249.16 19.00,247.09 Z
           M 34.00,471.00
           C 34.00,471.00 89.00,471.00 89.00,471.00
             89.00,471.00 150.00,471.00 150.00,471.00
             155.38,471.03 159.71,471.25 163.87,475.22
             170.01,481.09 169.14,492.18 161.91,496.77
             158.12,499.18 154.28,498.99 150.00,499.00
             150.00,499.00 27.00,499.00 27.00,499.00
             12.04,498.82 6.02,490.09 6.00,476.00
             6.00,476.00 6.00,355.00 6.00,355.00
             6.01,350.42 5.78,346.98 8.65,343.04
             14.39,335.16 25.64,334.98 31.30,343.04
             34.12,347.06 33.99,351.34 34.00,356.00
             34.00,356.00 34.00,471.00 34.00,471.00 Z
           M 454.00,471.00
           C 454.00,471.00 454.00,416.00 454.00,416.00
             454.00,416.00 454.00,380.00 454.00,380.00
             454.00,380.00 454.00,354.00 454.00,354.00
             454.01,350.11 453.78,346.51 456.01,343.09
             460.87,335.62 472.88,335.04 478.35,342.11
             481.82,346.59 481.99,352.60 482.00,358.00
             482.00,358.00 482.00,475.00 482.00,475.00
             481.81,490.86 475.19,498.97 459.00,499.00
             459.00,499.00 337.00,499.00 337.00,499.00
             332.44,498.99 328.95,499.21 325.07,496.35
             317.52,490.85 317.60,479.36 325.07,473.85
             329.18,470.85 333.22,471.01 338.00,471.00
             338.00,471.00 454.00,471.00 454.00,471.00 Z" />
</svg>
